<svg height="512" viewBox="0 0 60 60" width="512" xmlns="http://www.w3.org/2000/svg"><g id="Colour"><path d="m52 30a21.654 21.654 0 0 1 -.58 5c-.1.47-.22.93-.36 1.39a21.933 21.933 0 0 1 -5 8.65h-.01c-.32.35-.66.69-1.01 1.01v.01a21.933 21.933 0 0 1 -8.65 5c-.46.14-.92.26-1.39.36a21.842 21.842 0 0 1 -10 0c-.47-.1-.93-.22-1.39-.36a21.933 21.933 0 0 1 -8.65-5v-.01c-.35-.32-.69-.66-1.01-1.01h-.01a21.933 21.933 0 0 1 -5-8.65c-.14-.46-.26-.92-.36-1.39a21.842 21.842 0 0 1 0-10c.1-.47.22-.92.36-1.38v-.01a21.933 21.933 0 0 1 5-8.65h.01c.32-.35.66-.69 1.01-1.01v-.01a21.933 21.933 0 0 1 8.65-5c.46-.14.92-.26 1.39-.36a21.842 21.842 0 0 1 10 0c.47.1.93.22 1.39.36a21.933 21.933 0 0 1 8.65 5v.01c.35.32.69.66 1.01 1.01h.01a21.933 21.933 0 0 1 5 8.65c.14.46.26.92.36 1.39a21.654 21.654 0 0 1 .58 5z" fill="#ffdc00"/><path d="m51.42 25c-.1-.47-.22-.93-.36-1.39a21.933 21.933 0 0 0 -5-8.65h-.01c-.32-.35-.66-.69-1.01-1.01v-.01a21.933 21.933 0 0 0 -8.65-5c-.46-.14-.92-.26-1.39-.36a21.654 21.654 0 0 0 -5-.58c-.5 0-1 .022-1.5.056a21.476 21.476 0 0 1 3.5.524c.47.1.93.22 1.39.36a21.933 21.933 0 0 1 8.65 5v.01c.35.32.69.66 1.01 1.01h.01a21.933 21.933 0 0 1 5 8.65c.14.46.26.92.36 1.39a21.842 21.842 0 0 1 0 10c-.1.47-.22.93-.36 1.39a21.933 21.933 0 0 1 -5 8.65h-.01c-.32.35-.66.69-1.01 1.01v.01a21.933 21.933 0 0 1 -8.65 5c-.46.14-.92.26-1.39.36a21.476 21.476 0 0 1 -3.5.524c.5.034 1 .056 1.5.056a21.654 21.654 0 0 0 5-.58c.47-.1.93-.22 1.39-.36a21.933 21.933 0 0 0 8.65-5v-.01c.35-.32.69-.66 1.01-1.01h.01a21.933 21.933 0 0 0 5-8.65c.14-.46.26-.92.36-1.39a21.842 21.842 0 0 0 0-10z" fill="#fec108"/><path d="m35 8.58a21.842 21.842 0 0 0 -10 0l4.14-7.08a.987.987 0 0 1 1.72 0z" fill="#ff9801"/><path d="m23.61 8.94a21.933 21.933 0 0 0 -8.65 5l.05-8.19a.986.986 0 0 1 1.49-.86z" fill="#ff9801"/><path d="m23.62 8.95-.01-.01" fill="#ffdc00"/><path d="m13.94 14.96a21.933 21.933 0 0 0 -5 8.65l-4.05-7.11a.986.986 0 0 1 .86-1.49z" fill="#ff9801"/><path d="m8.95 23.62-.01-.01" fill="#ffdc00"/><path d="m8 30a21.654 21.654 0 0 0 .58 5l-7.08-4.14a.987.987 0 0 1 0-1.72l7.08-4.14a21.654 21.654 0 0 0 -.58 5z" fill="#ff9801"/><path d="m13.94 45.04-8.19-.05a.986.986 0 0 1 -.86-1.49l4.05-7.11a21.933 21.933 0 0 0 5 8.65z" fill="#ff9801"/><path d="m8.95 36.38-.01.01" fill="#ffdc00"/><path d="m23.61 51.06-7.11 4.05a.986.986 0 0 1 -1.49-.86l-.05-8.19a21.933 21.933 0 0 0 8.65 5z" fill="#ff9801"/><path d="m23.62 51.05-.01.01" fill="#ffdc00"/><path d="m35 51.42-4.14 7.08a.987.987 0 0 1 -1.72 0l-4.14-7.08a21.842 21.842 0 0 0 10 0z" fill="#ff9801"/><path d="m45.04 46.06-.05 8.19a.986.986 0 0 1 -1.49.86l-7.11-4.05a21.933 21.933 0 0 0 8.65-5z" fill="#ff9801"/><path d="m36.39 51.06-.01-.01" fill="#ffdc00"/><path d="m54.25 44.99-8.19.05a21.933 21.933 0 0 0 5-8.65l4.05 7.11a.986.986 0 0 1 -.86 1.49z" fill="#ff9801"/><path d="m51.06 36.39-.01-.01" fill="#ffdc00"/><path d="m58.5 30.86-7.08 4.14a21.842 21.842 0 0 0 0-10l7.08 4.14a.987.987 0 0 1 0 1.72z" fill="#ff9801"/><path d="m55.11 16.5-4.05 7.11a21.933 21.933 0 0 0 -5-8.65l8.19.05a.986.986 0 0 1 .86 1.49z" fill="#ff9801"/><path d="m51.06 23.61-.01.01" fill="#ffdc00"/><path d="m45.04 13.94a21.933 21.933 0 0 0 -8.65-5l7.11-4.05a.986.986 0 0 1 1.49.86z" fill="#ff9801"/><path d="m36.39 8.94-.01.01" fill="#ffdc00"/><path d="m31.275 29.962.482 1.686a6 6 0 0 0 5.769 4.352h3.474a5 5 0 0 0 5-5v-2.431l1.447-.723a1 1 0 0 0 .553-.895v-1.251a1 1 0 0 0 -.7-.957 21.835 21.835 0 0 0 -6.3-.743c-5 0-6 1-11 1s-6-1-11-1a21.835 21.835 0 0 0 -6.295.74 1 1 0 0 0 -.7.957v1.254a1 1 0 0 0 .553.895l1.442.723v2.431a5 5 0 0 0 5 5h3.474a6 6 0 0 0 5.769-4.352l.482-1.686a1.326 1.326 0 0 1 1.275-.962 1.326 1.326 0 0 1 1.275.962z" fill="#673ab7"/><path d="m47.3 24.74a21.835 21.835 0 0 0 -6.3-.74c-.549 0-1.043.014-1.506.035a19.637 19.637 0 0 1 4.8.7 1 1 0 0 1 .7.957v1.254a1 1 0 0 1 -.553.895l-1.441.728v2.431a5 5 0 0 1 -5 5h3a5 5 0 0 0 5-5v-2.431l1.447-.723a1 1 0 0 0 .553-.895v-1.251a1 1 0 0 0 -.7-.96z" fill="#4527a0"/><path d="m26 40h8a0 0 0 0 1 0 0v1a4 4 0 0 1 -4 4 4 4 0 0 1 -4-4v-1a0 0 0 0 1 0 0z" fill="#f5f5f5"/><path d="m31 40v1a4 4 0 0 1 -2.5 3.7 3.989 3.989 0 0 0 5.5-3.7v-1z" fill="#cfd8dc"/></g><g id="Outline"><path d="m1.06 31.789 6.706 3.922c.051.2.11.406.168.608l-3.843 6.743a1.987 1.987 0 0 0 1.7 3h.016l7.793.038q.21.216.426.426l.044 7.778a1.966 1.966 0 0 0 .993 1.739 1.988 1.988 0 0 0 1 .27 1.966 1.966 0 0 0 .994-.272l6.755-3.85c.2.058.4.117.608.168l3.915 6.694a1.988 1.988 0 0 0 3.454.012l3.922-6.706c.2-.051.406-.11.608-.168l6.744 3.844a1.972 1.972 0 0 0 2 .008 1.963 1.963 0 0 0 .994-1.725l.044-7.792q.216-.21.426-.426l7.779-.044a1.9 1.9 0 0 0 1.739-.994 1.963 1.963 0 0 0 0-1.991l-3.85-6.755c.058-.2.116-.4.168-.608l6.7-3.916a1.988 1.988 0 0 0 .01-3.453l-6.714-3.919c-.052-.205-.11-.406-.168-.608l3.843-6.744a1.986 1.986 0 0 0 -1.7-3h-.016l-7.792-.044q-.21-.216-.426-.426l-.044-7.778a1.988 1.988 0 0 0 -2.985-1.737l-6.755 3.853c-.2-.057-.4-.116-.608-.167l-3.915-6.694a1.987 1.987 0 0 0 -3.454-.012l-3.922 6.706c-.205.051-.406.11-.608.167l-6.745-3.843a1.987 1.987 0 0 0 -2.995 1.717l-.044 7.79q-.216.21-.426.426l-7.779.044a2.054 2.054 0 0 0 -1.739.994 1.963 1.963 0 0 0 0 1.991l3.85 6.755c-.058.2-.117.4-.168.608l-6.7 3.916a1.987 1.987 0 0 0 -.01 3.453zm29-22.724a21 21 0 1 1 -21 21 21.024 21.024 0 0 1 21.002-21zm-24.24 35 2.98-5.232a23.006 23.006 0 0 0 3.055 5.267zm10.249 10.244-.034-6.035a23.006 23.006 0 0 0 5.265 3.052zm14 3.749-3.041-5.2a22.465 22.465 0 0 0 6.078 0zm14-3.751-5.232-2.982a23.034 23.034 0 0 0 5.263-3.052zm10.238-10.248-6.036.034a23.043 23.043 0 0 0 3.052-5.262zm3.749-14-5.2 3.042a22.473 22.473 0 0 0 0-6.079zm-3.753-14-2.981 5.241a23.006 23.006 0 0 0 -3.052-5.262zm-10.247-10.237.034 6.035a22.969 22.969 0 0 0 -5.262-3.052zm-14-3.749 3.041 5.2a22.358 22.358 0 0 0 -6.078 0zm-14 3.751 5.244 2.982a23.013 23.013 0 0 0 -5.263 3.052zm-10.238 10.248 6.036-.034a23.021 23.021 0 0 0 -3.054 5.262zm1.451 10.955a22.365 22.365 0 0 0 0 6.079l-5.2-3.037z"/><path d="m22.537 37.065a7.029 7.029 0 0 0 6.731-5.076l.482-1.689a.338.338 0 0 1 .625 0l.482 1.686a7.028 7.028 0 0 0 6.731 5.077h3.474a6.006 6.006 0 0 0 6-6v-1.81l.9-.447a1.989 1.989 0 0 0 1.1-1.789v-1.255a1.99 1.99 0 0 0 -1.411-1.912 22.719 22.719 0 0 0 -6.589-.785 30.51 30.51 0 0 0 -5.664.514 28.437 28.437 0 0 1 -5.336.486 28.416 28.416 0 0 1 -5.335-.486 30.523 30.523 0 0 0 -5.665-.514 22.716 22.716 0 0 0 -6.588.785 1.991 1.991 0 0 0 -1.412 1.912v1.255a1.99 1.99 0 0 0 1.106 1.789l.894.447v1.812a6.007 6.007 0 0 0 6 6zm-7.475-6v-2.43a1 1 0 0 0 -.552-.9l-1.448-.723v-1.25a20.837 20.837 0 0 1 6-.7 28.424 28.424 0 0 1 5.336.487 30.525 30.525 0 0 0 5.664.513 30.537 30.537 0 0 0 5.665-.513 28.4 28.4 0 0 1 5.335-.487 20.815 20.815 0 0 1 6 .7v1.255l-1.447.723a1 1 0 0 0 -.553.9v2.43a4 4 0 0 1 -4 4h-3.474a5.02 5.02 0 0 1 -4.807-3.626l-.481-1.692a2.326 2.326 0 0 0 -4.473 0l-.482 1.687a5.02 5.02 0 0 1 -4.807 3.626h-3.476a4 4 0 0 1 -4-4z"/><g fill="#f5f5f5"><path d="m19.769 27.358a1 1 0 0 0 -1.414 0l-1 1a1 1 0 1 0 1.414 1.414l1-1a1 1 0 0 0 0-1.414z"/><path d="m19.355 32.772a1 1 0 0 0 1.414 0l3-3a1 1 0 0 0 -1.414-1.414l-3 3a1 1 0 0 0 0 1.414z"/><path d="m36.062 30.065a.993.993 0 0 0 .707-.293l1-1a1 1 0 1 0 -1.414-1.414l-1 1a1 1 0 0 0 .707 1.707z"/><path d="m37.355 32.772a1 1 0 0 0 1.414 0l3-3a1 1 0 1 0 -1.414-1.414l-3 3a1 1 0 0 0 0 1.414z"/></g><path d="m34.062 39.065h-8a1 1 0 0 0 -1 1v1a5 5 0 1 0 10 0v-1a1 1 0 0 0 -1-1zm-4 5a3 3 0 0 1 -3-3h6a3 3 0 0 1 -3 3z"/></g></svg>